<?xml version="1.0" encoding="UTF-8"?>
<svg width="52px" height="54px" viewBox="0 0 52 54" version="1.1" xmlns="http://www.w3.org/2000/svg" xmlns:xlink="http://www.w3.org/1999/xlink">
    <title>data</title>
    <defs>
        <linearGradient x1="50%" y1="0%" x2="50%" y2="100%" id="linearGradient-1">
            <stop stop-color="#736BD8" offset="0%"></stop>
            <stop stop-color="#3F39AF" offset="100%"></stop>
        </linearGradient>
        <linearGradient x1="50%" y1="0%" x2="50%" y2="100%" id="linearGradient-2">
            <stop stop-color="#736BD8" offset="0%"></stop>
            <stop stop-color="#3F39AF" offset="100%"></stop>
        </linearGradient>
        <linearGradient x1="50%" y1="0%" x2="50%" y2="100%" id="linearGradient-3">
            <stop stop-color="#FF2790" offset="0%"></stop>
            <stop stop-color="#FF1157" offset="100%"></stop>
        </linearGradient>
        <linearGradient x1="50%" y1="0%" x2="50%" y2="100%" id="linearGradient-4">
            <stop stop-color="#494397" offset="0%"></stop>
            <stop stop-color="#23205E" offset="100%"></stop>
        </linearGradient>
        <linearGradient x1="50%" y1="0%" x2="50%" y2="100%" id="linearGradient-5">
            <stop stop-color="#494397" offset="0%"></stop>
            <stop stop-color="#23205E" offset="100%"></stop>
        </linearGradient>
        <linearGradient x1="50%" y1="0%" x2="50%" y2="100%" id="linearGradient-6">
            <stop stop-color="#494397" offset="0%"></stop>
            <stop stop-color="#23205E" offset="100%"></stop>
        </linearGradient>
        <linearGradient x1="50%" y1="0%" x2="50%" y2="100%" id="linearGradient-7">
            <stop stop-color="#FFE33C" offset="0%"></stop>
            <stop stop-color="#FFC21C" offset="100%"></stop>
        </linearGradient>
    </defs>
    <g id="Page-1" stroke="none" stroke-width="1" fill="none" fill-rule="evenodd">
        <g id="Spoonshot---Home" transform="translate(-737.000000, -2675.000000)" fill-rule="nonzero">
            <g id="data" transform="translate(737.000000, 2675.000000)">
                <path d="M4.6475,54 C2.09392857,54 0.00464285714,51.9051724 0.00464285714,49.3448276 L0.00464285714,31.9310345 C0.00464285714,29.7218955 1.79550386,27.9310345 4.00464286,27.9310345 L9.29035714,27.9310345 L9.29035714,27.9310345 L9.29035714,49.3448276 C9.29035714,51.9051724 7.20107143,54 4.6475,54 Z" id="Path" fill="url(#linearGradient-1)"></path>
                <path d="M11.2903571,0 L49.9953571,0 C51.0999266,-2.02906125e-16 51.9953571,0.8954305 51.9953571,2 L51.9953571,10.2413793 L51.9953571,10.2413793 L9.29035714,10.2413793 L9.29035714,2 C9.29035714,0.8954305 10.1857876,2.02906125e-16 11.2903571,0 Z" id="Rectangle" fill="url(#linearGradient-2)"></path>
                <path d="M9.29035714,32.5862069 L9.29035714,39.1034483 L9.29035714,49.3448276 C9.29035714,51.9051724 7.20107143,54 4.6475,54 L9.29035714,54 L14.8617857,54 L47.3617857,54 C49.9209286,54 51.9953571,51.920069 51.9953571,49.3541379 L51.9953571,12.1034483 L9.29035714,12.1034483 L9.29035714,32.5862069 Z" id="Path" fill-opacity="0.132894449" fill="#3F39AF"></path>
                <rect id="Rectangle" fill="#F4F3ED" x="9.29035714" y="10.2413793" width="42.705" height="1.86206897"></rect>
                <rect id="Rectangle" fill="url(#linearGradient-3)" x="14.8617857" y="14.8965517" width="11.1428571" height="11.1724138" rx="2"></rect>
                <path d="M46.4332143,15.8275862 L31.5760714,15.8275862 C31.0625714,15.8275862 30.6475,15.4114138 30.6475,14.8965517 C30.6475,14.3816897 31.0625714,13.9655172 31.5760714,13.9655172 L46.4332143,13.9655172 C46.9467143,13.9655172 47.3617857,14.3816897 47.3617857,14.8965517 C47.3617857,15.4114138 46.9467143,15.8275862 46.4332143,15.8275862 Z" id="Path" fill="url(#linearGradient-4)" opacity="0.539999962"></path>
                <path d="M46.4332143,21.4137931 L31.5760714,21.4137931 C31.0625714,21.4137931 30.6475,20.9976207 30.6475,20.4827586 C30.6475,19.9678966 31.0625714,19.5517241 31.5760714,19.5517241 L46.4332143,19.5517241 C46.9467143,19.5517241 47.3617857,19.9678966 47.3617857,20.4827586 C47.3617857,20.9976207 46.9467143,21.4137931 46.4332143,21.4137931 Z" id="Path" fill="url(#linearGradient-4)" opacity="0.539999962"></path>
                <path d="M46.4332143,27 L31.5760714,27 C31.0625714,27 30.6475,26.5838276 30.6475,26.0689655 C30.6475,25.5541034 31.0625714,25.137931 31.5760714,25.137931 L46.4332143,25.137931 C46.9467143,25.137931 47.3617857,25.5541034 47.3617857,26.0689655 C47.3617857,26.5838276 46.9467143,27 46.4332143,27 Z" id="Path" fill="url(#linearGradient-4)" opacity="0.539999962"></path>
                <path d="M46.4332143,32.5862069 L15.7903571,32.5862069 C15.2768571,32.5862069 14.8617857,32.1700345 14.8617857,31.6551724 C14.8617857,31.1403103 15.2768571,30.7241379 15.7903571,30.7241379 L46.4332143,30.7241379 C46.9467143,30.7241379 47.3617857,31.1403103 47.3617857,31.6551724 C47.3617857,32.1700345 46.9467143,32.5862069 46.4332143,32.5862069 Z" id="Path" fill="url(#linearGradient-5)" opacity="0.539999962"></path>
                <path d="M29.7189286,38.1724138 L15.7903571,38.1724138 C15.2768571,38.1724138 14.8617857,37.7562414 14.8617857,37.2413793 C14.8617857,36.7265172 15.2768571,36.3103448 15.7903571,36.3103448 L29.7189286,36.3103448 C30.2324286,36.3103448 30.6475,36.7265172 30.6475,37.2413793 C30.6475,37.7562414 30.2324286,38.1724138 29.7189286,38.1724138 Z" id="Path" fill="url(#linearGradient-6)" opacity="0.539999962"></path>
                <path d="M29.7189286,43.7586207 L15.7903571,43.7586207 C15.2768571,43.7586207 14.8617857,43.3424483 14.8617857,42.8275862 C14.8617857,42.3127241 15.2768571,41.8965517 15.7903571,41.8965517 L29.7189286,41.8965517 C30.2324286,41.8965517 30.6475,42.3127241 30.6475,42.8275862 C30.6475,43.3424483 30.2324286,43.7586207 29.7189286,43.7586207 Z" id="Path" fill="url(#linearGradient-6)" opacity="0.539999962"></path>
                <path d="M29.7189286,49.3448276 L15.7903571,49.3448276 C15.2768571,49.3448276 14.8617857,48.9286552 14.8617857,48.4137931 C14.8617857,47.898931 15.2768571,47.4827586 15.7903571,47.4827586 L29.7189286,47.4827586 C30.2324286,47.4827586 30.6475,47.898931 30.6475,48.4137931 C30.6475,48.9286552 30.2324286,49.3448276 29.7189286,49.3448276 Z" id="Path" fill="url(#linearGradient-6)" opacity="0.539999962"></path>
                <rect id="Rectangle" fill="url(#linearGradient-7)" x="35.2903571" y="37.2413793" width="11.1428571" height="11.1724138" rx="2"></rect>
            </g>
        </g>
    </g>
</svg>