<?xml version="1.0" encoding="UTF-8"?>
<svg width="54px" height="54px" viewBox="0 0 54 54" version="1.1" xmlns="http://www.w3.org/2000/svg" xmlns:xlink="http://www.w3.org/1999/xlink">
    <title>fingerprint</title>
    <defs>
        <linearGradient x1="50%" y1="0%" x2="50%" y2="100%" id="linearGradient-1">
            <stop stop-color="#FFE33C" offset="0%"></stop>
            <stop stop-color="#FFC21C" offset="100%"></stop>
        </linearGradient>
        <ellipse id="path-2" cx="27" cy="26.7160428" rx="27" ry="26.7160428"></ellipse>
        <linearGradient x1="50%" y1="0%" x2="50%" y2="100%" id="linearGradient-4">
            <stop stop-color="#736BD8" offset="0%"></stop>
            <stop stop-color="#3F39AF" offset="100%"></stop>
        </linearGradient>
        <linearGradient x1="50%" y1="0%" x2="50%" y2="100%" id="linearGradient-5">
            <stop stop-color="#736BD8" offset="0%"></stop>
            <stop stop-color="#3F39AF" offset="100%"></stop>
        </linearGradient>
        <linearGradient x1="50%" y1="0%" x2="50%" y2="100%" id="linearGradient-6">
            <stop stop-color="#736BD8" offset="0%"></stop>
            <stop stop-color="#3F39AF" offset="100%"></stop>
        </linearGradient>
        <linearGradient x1="50%" y1="0%" x2="50%" y2="100%" id="linearGradient-7">
            <stop stop-color="#736BD8" offset="0%"></stop>
            <stop stop-color="#3F39AF" offset="100%"></stop>
        </linearGradient>
        <linearGradient x1="50%" y1="0%" x2="50%" y2="100%" id="linearGradient-8">
            <stop stop-color="#736BD8" offset="0%"></stop>
            <stop stop-color="#3F39AF" offset="100%"></stop>
        </linearGradient>
        <linearGradient x1="50%" y1="0%" x2="50%" y2="100%" id="linearGradient-9">
            <stop stop-color="#736BD8" offset="0%"></stop>
            <stop stop-color="#3F39AF" offset="100%"></stop>
        </linearGradient>
        <linearGradient x1="50%" y1="0%" x2="50%" y2="100%" id="linearGradient-10">
            <stop stop-color="#736BD8" offset="0%"></stop>
            <stop stop-color="#3F39AF" offset="100%"></stop>
        </linearGradient>
        <linearGradient x1="50%" y1="0%" x2="50%" y2="100%" id="linearGradient-11">
            <stop stop-color="#736BD8" offset="0%"></stop>
            <stop stop-color="#3F39AF" offset="100%"></stop>
        </linearGradient>
        <linearGradient x1="50%" y1="0%" x2="50%" y2="100%" id="linearGradient-12">
            <stop stop-color="#736BD8" offset="0%"></stop>
            <stop stop-color="#3F39AF" offset="100%"></stop>
        </linearGradient>
        <linearGradient x1="50%" y1="0%" x2="50%" y2="100%" id="linearGradient-13">
            <stop stop-color="#736BD8" offset="0%"></stop>
            <stop stop-color="#3F39AF" offset="100%"></stop>
        </linearGradient>
        <linearGradient x1="50%" y1="0%" x2="50%" y2="100%" id="linearGradient-14">
            <stop stop-color="#736BD8" offset="0%"></stop>
            <stop stop-color="#3F39AF" offset="100%"></stop>
        </linearGradient>
    </defs>
    <g id="Page-1" stroke="none" stroke-width="1" fill="none" fill-rule="evenodd">
        <g id="Spoonshot---Home" transform="translate(-257.000000, -2675.000000)">
            <g id="fingerprint" transform="translate(257.000000, 2675.000000)">
                <mask id="mask-3" fill="white">
                    <use xlink:href="#path-2"></use>
                </mask>
                <use id="Mask" fill="url(#linearGradient-1)" fill-rule="nonzero" xlink:href="#path-2"></use>
                <g mask="url(#mask-3)">
                    <g transform="translate(12.000000, 7.000000)">
                        <g id="Group" stroke-width="1" fill="none" fill-rule="evenodd">
                            <path d="M17.9010465,19.178193 C17.1771314,17.0562281 14.8491074,15.9158012 12.7013697,16.6311053 C10.6883657,17.3014795 9.52593106,19.3787427 10.021699,21.4195906 C11.4990766,26.4943041 16.9029701,31.0484094 21.8521853,34.918076 C22.2076023,35.1961696 22.7238381,35.1370234 23.0053863,34.7858713 C23.2868575,34.4347193 23.2269929,33.9246784 22.8715759,33.6465088 C18.1209603,29.932538 12.9419821,25.5843801 11.5991844,20.9718889 C11.2233764,19.6797953 11.9789166,18.3314444 13.2867036,17.9601462 C14.5944906,17.588848 15.9592182,18.3353216 16.3350262,19.6274152 C17.2313019,22.7088713 21.6880579,26.5169591 25.9281317,29.8319591 C26.2835488,30.1100526 26.7997845,30.0509064 27.0813327,29.6997544 C27.3628039,29.3486023 27.3029394,28.8385614 26.9475223,28.5603918 C24.7085257,26.8137544 18.7793167,22.1785322 17.9010465,19.178193 Z" id="Path" fill="#FFC107" fill-rule="nonzero"></path>
                            <path d="M24.1224992,17.0876257 C22.338104,11.6823626 16.5568637,8.62903509 11.0165436,10.1656199 C5.35226223,11.771386 2.07802401,17.6099064 3.70337027,23.2062164 C3.70452447,23.2101696 3.70567867,23.2141988 3.70683287,23.218152 C5.05455525,27.8436433 2.16543552,29.126462 1.24453678,29.4086608 C0.81209603,29.5429942 0.57179132,29.9982982 0.707756233,30.4255497 C0.843721145,30.8528012 1.30455525,31.0902222 1.736996,30.9558889 C4.24692213,30.1806784 6.68459526,27.5727719 5.28431825,22.7688538 C3.90389351,18.0349532 6.66905202,13.0918363 11.4603724,11.7279766 C11.4629117,11.7272924 11.4654509,11.7265322 11.4679132,11.725848 C16.2053709,10.4101871 21.1413512,13.0628713 22.5974915,17.7071404 C22.6168821,17.7703918 22.644506,17.8309064 22.6795937,17.8871637 C22.7649277,18.0266667 22.9405971,18.320193 28.2164512,22.5499064 C28.5681748,22.8324854 29.085257,22.7798772 29.3712681,22.4322982 C29.6572792,22.0847953 29.604032,21.5739181 29.2522315,21.2913392 C27.3349492,19.7539181 24.5328563,17.468731 24.1224992,17.0876257 Z" id="Path" fill="#FFC107" fill-rule="nonzero"></path>
                            <path d="M21.0594029,18.281269 C19.9257464,14.4135789 15.8401046,12.1795556 11.9209757,13.2844035 C8.07279163,14.4582047 5.83925823,18.414462 6.85026162,22.2661111 C8.5082333,29.7265146 7.26885195,31.4489006 3.86757464,32.499848 C3.43513389,32.6341813 3.19482918,33.0894854 3.33079409,33.5167368 C3.466759,33.9439883 3.92759311,34.1814094 4.36003386,34.047076 C9.11226531,32.5874269 10.1448138,29.5188947 8.46383503,21.9173918 C7.64719914,18.9032164 9.37373038,15.7873216 12.3838104,14.8429591 C15.4338258,13.9874678 18.6104955,15.726655 19.4933056,18.7353567 C19.8216374,19.8414211 20.6932902,21.3594561 27.4153586,26.6158655 C27.7707756,26.8939591 28.2870114,26.8348129 28.5685596,26.4836608 C28.8500308,26.1325088 28.7901662,25.6224678 28.4347492,25.3442982 C22.3331794,20.5761871 21.2891659,19.0662865 21.0594029,18.281269 Z" id="Path" fill="#FFC107" fill-rule="nonzero"></path>
                            <path d="M23.3180979,29.5692222 C20.5406279,27.4867895 15.8918129,24.0030936 14.7476916,20.0750409 C14.6150354,19.6468012 14.156048,19.405883 13.722607,19.5370234 C13.2997845,19.6648947 13.0554786,20.1007368 13.1701293,20.5226667 C14.4636811,24.969731 19.3849646,28.6577778 22.3249461,30.861848 C22.9224377,31.2868947 23.4976916,31.7415906 24.0485534,32.2241871 C24.3745768,32.5353509 24.8941982,32.5264561 25.2091413,32.204345 C25.5163897,31.8900643 25.5163897,31.391807 25.2091413,31.0776023 C24.6080332,30.5400409 23.9766851,30.036462 23.3180979,29.5692222 Z" id="Path" fill="#FFC107" fill-rule="nonzero"></path>
                            <path d="M18.8761157,35.2100058 C18.0465528,33.689462 16.5185442,32.6640585 14.7821637,32.4625965 C11.9915359,32.4625965 11.5598646,37.1496667 11.4990766,38.0887076 C11.4709911,38.5356491 11.8149431,38.9204795 12.267313,38.9483057 L12.3198677,38.9483057 C12.7540012,38.9491404 13.1137273,38.6157778 13.1406587,38.1876901 C13.2440751,36.5172281 13.8908126,34.0844795 14.7821637,34.0844795 C15.998538,34.0844795 16.8619575,35.2424678 17.5547091,36.1717778 C17.7835488,36.494117 18.0341644,36.8007953 18.304863,37.0897602 C18.6308864,37.400924 19.1505078,37.3919532 19.4654509,37.0698421 C19.7726993,36.7555614 19.7726993,36.2573801 19.4654509,35.9430994 C19.2531548,35.7116082 19.0562481,35.4667368 18.8761157,35.2100058 Z" id="Path" fill="#FFC107" fill-rule="nonzero"></path>
                            <path d="M11.4613727,28.1614971 C11.3070945,27.7404035 10.8364882,27.5225965 10.4102801,27.6750234 C10.0093875,27.8184035 9.78631887,28.2412456 9.89704524,28.6480468 C10.599646,30.816462 9.21906741,35.0720994 7.14258233,35.7386725 C6.70998769,35.8724737 6.46906741,36.3273977 6.60441674,36.7548012 C6.73984303,37.1822047 7.2002924,37.4202339 7.63288704,37.2865088 C7.6385811,37.2847602 7.64419821,37.2829357 7.64981533,37.2810351 C10.8080179,36.2755497 12.3313327,30.855386 11.4613727,28.1614971 Z" id="Path" fill="#FFC107" fill-rule="nonzero"></path>
                            <path d="M28.9879963,17.0940877 C27.9620653,16.7696959 27.156048,15.4722807 26.2219914,13.9914971 C24.245614,10.835386 21.5353955,6.51322807 13.9613727,6.51322807 C6.25907972,6.52219883 0.0173899661,12.6889883 0.00838719606,20.2988538 C0.00838719606,20.7467076 0.375884888,21.1097953 0.829178209,21.1097953 C1.28247153,21.1097953 1.64996922,20.7467076 1.64996922,20.2988538 C1.65720222,13.5839357 7.16497384,8.14225731 13.9614497,8.13511111 C20.6211142,8.13511111 22.953755,11.8556199 24.8284087,14.8462281 C25.9315174,16.6059415 26.8835796,18.1255731 28.4824561,18.6380468 C28.9120499,18.7810468 29.3775777,18.5529006 29.5223146,18.128538 C29.6670514,17.7040994 29.4361342,17.2441579 29.0066174,17.1011579 C29.0010003,17.0992573 28.9953832,17.0975088 28.9896891,17.0956842 L28.9879963,17.0940877 Z" id="Path" fill="#FFC107" fill-rule="nonzero"></path>
                            <path d="M1.64989227,26.7861579 C2.1031856,26.7861579 2.47068329,26.4230702 2.47060635,25.9752164 C2.47060635,25.8490936 2.44082795,25.7247193 2.38365651,25.6119766 C2.03339489,24.963269 1.78585719,24.2653743 1.64989227,23.5425439 C1.64989227,23.0946901 1.28239458,22.7316023 0.829101262,22.7316023 C0.375807941,22.7316023 0.00831024931,23.0946901 0.00831024931,23.5425439 C0.14004309,24.5205088 0.447522315,25.4673801 0.916051093,26.3386082 C1.05532472,26.6129006 1.33933518,26.7861579 1.64989227,26.7861579 Z" id="Path" fill="#FFC107" fill-rule="nonzero"></path>
                            <path d="M1.22314558,9.63854971 C1.61018775,9.87163743 2.11526624,9.75068421 2.35118498,9.36828655 C2.35164666,9.36752632 2.35210834,9.36684211 2.35249307,9.36608187 C3.06494306,8.20482456 6.57448446,4.89142105 13.1406587,4.89142105 C19.4506771,4.89142105 23.9402893,8.04912865 24.7495383,9.36608187 C24.9847645,9.7490117 25.4896891,9.87095322 25.8772699,9.63854971 C26.2648507,9.4061462 26.3882733,8.9072807 26.1530471,8.52435088 L26.1530471,8.52435088 C25.0269314,6.69165497 20.0547861,3.26961404 13.1406587,3.26961404 C5.78824254,3.26961404 1.84695291,7.06310526 0.947368421,8.52594737 C0.713065559,8.90849708 0.83648815,9.40622222 1.22314558,9.63854971 Z" id="Path" fill="#FFC107" fill-rule="nonzero"></path>
                            <path d="M6.08202524,3.19822807 C6.45791013,3.03607018 6.77639274,2.87383626 7.07840874,2.71167836 C8.3128655,2.09702924 9.20090797,1.64773099 13.1405817,1.64773099 C15.8007079,1.50290643 18.4613727,1.92377193 20.9427516,2.88197076 C21.2563096,2.9971462 21.5714835,3.11224561 21.9014312,3.22415205 C21.9874577,3.25364912 22.0778701,3.26900585 22.1689751,3.26953801 C22.6222684,3.27037427 22.9903817,2.90797076 22.9912293,2.46011696 C22.9918436,2.11299415 22.768852,1.80403509 22.4365189,1.69152047 C22.1180363,1.58288304 21.8160203,1.4725731 21.5140043,1.36712865 C18.8501847,0.340736842 15.9963066,-0.116391813 13.1406587,0.0259239766 C8.80047707,0.0259239766 7.71375808,0.577321637 6.33487227,1.27635673 C6.05747922,1.41745614 5.76200369,1.56669006 5.41728224,1.71911696 C4.99607572,1.88454386 4.7903201,2.35604094 4.95767929,2.77219298 C5.12511542,3.18834503 5.60233918,3.39163158 6.02354571,3.2262807 C6.0450908,3.21784211 6.06625115,3.20849123 6.08694983,3.19822807 L6.08202524,3.19822807 Z" id="Path" fill="#FFC107" fill-rule="nonzero"></path>
                            <path d="M27.9521391,14.0580175 C28.1064174,14.4791111 28.5770237,14.6969181 29.0032318,14.5444912 C29.4041243,14.4011111 29.627193,13.978269 29.5164666,13.5714678 C29.0507849,12.3801053 28.4731456,11.2343567 27.7912435,10.1494269 C27.5537088,9.7678655 27.0480917,9.64873684 26.661896,9.88342105 C26.2757002,10.1181053 26.1551247,10.617655 26.3926593,10.9992164 C27.0036934,11.9709474 27.5256233,12.9946023 27.9521391,14.0580175 Z" id="Path" fill="#FFC107" fill-rule="nonzero"></path>
                        </g>
                        <path d="M22.3561865,35.0932339 C22.1714374,35.0932339 21.9921514,35.0313509 21.8473376,34.918076 C16.8981225,31.0467368 11.4991536,26.4943041 10.0217759,21.4195906 C9.49276701,19.2421287 10.8505694,17.0533392 13.0544783,16.5306784 C15.1201139,16.0408596 17.222607,17.189345 17.9011234,19.178193 C18.7743921,22.1769357 24.7036011,26.8137544 26.9295168,28.5588713 C27.2935519,28.8257895 27.3696522,29.3337018 27.0994922,29.6932924 C26.8293321,30.052883 26.3152508,30.1281462 25.9512927,29.8612281 C25.937827,29.851345 25.9245922,29.8410058 25.9117421,29.8303626 C21.6716682,26.5153626 17.2116036,22.7088713 16.3170206,19.6258187 C15.9412127,18.3341813 14.5767929,17.5880877 13.2695445,17.959386 C11.9622191,18.3306842 11.2070637,19.678731 11.5828717,20.9702924 C12.9256694,25.5827836 18.1046476,29.9309415 22.8536473,33.6449123 C23.2090643,33.9229298 23.2690058,34.4329708 22.9876116,34.7840468 C22.8317175,34.9785906 22.5942598,35.0918655 22.3431056,35.0915614 L22.3561865,35.0932339 Z" id="Path" fill="url(#linearGradient-4)" fill-rule="nonzero"></path>
                        <path d="M1.48576485,30.988367 C1.03247153,30.9875146 0.665666359,30.6238187 0.666511311,30.1759649 C0.667128347,29.8223041 0.899738381,29.509848 1.24122807,29.4037953 C2.1588181,29.12 5.04793783,27.8371053 3.70352416,23.2132865 C2.0745614,17.6180409 5.34495229,11.7774678 11.0081564,10.1680526 C11.0109264,10.1672924 11.0137735,10.1664561 11.0165436,10.1656959 C16.5574792,8.62804678 22.3397199,11.6816023 24.1241921,17.0877018 C24.5329332,17.4672105 27.3350262,19.7539942 29.2523084,21.2914912 C29.595337,21.5841813 29.6332718,22.0962749 29.3370268,22.4352632 C29.053401,22.759731 28.5631733,22.8099825 28.218144,22.5500585 C22.9405971,18.3186725 22.7650046,18.0251462 22.6795937,17.8856433 C22.6456602,17.829538 22.6186519,17.7696316 22.5991844,17.7072164 C21.143044,13.0621111 16.2059865,10.4091988 11.4679902,11.725924 C6.67559249,13.0863626 3.90689443,18.0275789 5.28385657,22.7623918 C5.28401046,22.762924 5.28416436,22.7635322 5.28431825,22.7640643 C6.68290243,27.5663099 4.24684518,30.1758129 1.73530317,30.9510994 C1.65458603,30.9762632 1.57040628,30.988883 1.48576485,30.988367 Z" id="Path" fill="url(#linearGradient-5)" fill-rule="nonzero"></path>
                        <path d="M4.11218837,34.0844094 C3.65889504,34.0835673 3.29208987,33.7198713 3.29293483,33.2720175 C3.29355186,32.9183567 3.5261619,32.6059006 3.86765159,32.499848 C7.2689289,31.4489006 8.50661742,29.7232456 6.84864574,22.2661111 C5.83848877,18.414538 8.07171437,14.4588889 11.9193598,13.2844035 C15.8385657,12.1823684 19.9226685,14.4151754 21.0594029,18.281269 C21.28755,19.064614 22.3299477,20.5745146 28.4216682,25.3395088 C28.7857033,25.6064269 28.8618036,26.1143392 28.5916436,26.4739298 C28.3214835,26.8335965 27.8074023,26.9087836 27.4434441,26.6418655 C27.4299785,26.6319825 27.4167436,26.6216433 27.4038935,26.611 C20.6735919,21.3529942 19.8019391,19.8333626 19.4818406,18.7304912 C18.6021853,15.7185965 15.4217452,13.9777368 12.3707295,14.8380936 C9.35726377,15.7832164 7.63057864,18.9042807 8.45236996,21.9206608 C10.1415051,29.5238363 9.1089566,32.5842339 4.34856879,34.050345 C4.27192982,34.0732281 4.19228994,34.0847076 4.11218837,34.0844094 Z" id="Path" fill="url(#linearGradient-6)" fill-rule="nonzero"></path>
                        <path d="M24.6313481,32.4625978 C24.4135118,32.4629766 24.2044475,32.3778304 24.0502462,32.2257836 C23.4992305,31.742807 22.9239766,31.2875789 22.326639,30.861848 C19.3866574,28.6577778 14.465374,24.969731 13.1718221,20.5226667 C13.0391659,20.0944269 13.2829332,19.6410234 13.7163743,19.509883 C14.1498153,19.3788187 14.6087258,19.6196608 14.7414589,20.0479006 C14.744229,20.0568713 14.7468452,20.0659181 14.7493075,20.0749649 C15.8983533,24.0030175 20.5406279,27.4867135 23.3180979,29.5691462 C23.9770699,30.0371462 24.6089566,30.5411813 25.2107572,31.0790468 C25.5307787,31.3962164 25.5300092,31.9096784 25.2089104,32.2258596 C25.0555556,32.3770702 24.8479532,32.4621404 24.6313481,32.4625978 Z" id="Path" fill="url(#linearGradient-7)" fill-rule="nonzero"></path>
                        <path d="M12.3198677,38.9499022 L12.267313,38.9499022 C11.8149431,38.922076 11.4709911,38.5372456 11.4990766,38.0903041 C11.5581717,37.1512632 11.9915359,32.464193 14.7821637,32.464193 C16.5221607,32.6640585 18.0540166,33.6901462 18.8859649,35.2131988 C19.06502,35.4703099 19.2613112,35.7151813 19.4736073,35.9462924 C19.7885503,36.2684035 19.7794706,36.7817895 19.4534472,37.0929532 C19.1353493,37.3965146 18.6311173,37.3965146 18.3130194,37.0929532 C18.0417821,36.8050526 17.7911665,36.4988304 17.5628655,36.1766433 C16.8635734,35.2424678 16.0001539,34.0844795 14.7820868,34.0844795 C13.8923515,34.0844795 13.2439982,36.5172281 13.1405817,38.1893626 C13.1137273,38.6173743 12.7540012,38.9507368 12.3198677,38.9499022 Z" id="Path" fill="url(#linearGradient-8)" fill-rule="nonzero"></path>
                        <path d="M7.39527547,37.3280936 C6.94198215,37.3289298 6.57379194,36.9666023 6.57294396,36.5187485 C6.572253,36.165924 6.80255463,35.8531637 7.14250539,35.7452105 C9.21737458,35.0786374 10.5897199,30.822924 9.8969683,28.6545848 C9.7346876,28.2363801 9.94629117,27.7674678 10.3694983,27.6071345 C10.7927054,27.4468012 11.26739,27.6558655 11.4296707,28.0739942 C11.4415974,28.1047076 11.4516005,28.1361053 11.4596799,28.1680351 C12.3313327,30.861924 10.8030933,36.2772222 7.64804555,37.2957076 C7.56602031,37.3194269 7.48076331,37.3303743 7.39527547,37.3280936 Z" id="Path" fill="url(#linearGradient-9)" fill-rule="nonzero"></path>
                        <path d="M0.829178209,21.1097953 C0.375884888,21.1097953 0.00838719606,20.7467076 0.00838719606,20.2988538 C0.0174669129,12.6889883 6.25907972,6.52219883 13.9613727,6.51330409 C21.5353955,6.51330409 24.2455371,10.835462 26.2236073,13.9915731 C27.1576639,15.4788187 27.9636042,16.7649064 28.9896122,17.0941637 C29.4222068,17.2279649 29.6631271,17.6828889 29.5277778,18.1102924 C29.3924284,18.5376959 28.9319021,18.7757251 28.4993075,18.642 C28.4936134,18.6402515 28.4879963,18.6384269 28.4823792,18.6365263 C26.8835026,18.1240526 25.9314404,16.604345 24.8283318,14.8447076 C22.9536781,11.8556959 20.6211142,8.13518713 13.9613727,8.13518713 C7.16489689,8.14233333 1.65712527,13.5840117 1.64989227,20.2989298 C1.64989227,20.7467076 1.28247153,21.1097953 0.829178209,21.1097953 Z" id="Path" fill="url(#linearGradient-10)" fill-rule="nonzero"></path>
                        <path d="M1.64989227,26.7861595 C1.33871961,26.7867661 1.05393967,26.6134327 0.914512158,26.3385322 C0.446137273,25.4673801 0.139273623,24.5204327 0.00838719606,23.5424678 C0.00838719606,23.094614 0.375884888,22.7315263 0.829178209,22.7315263 C1.28247153,22.7315263 1.64996922,23.094614 1.64996922,23.5424678 C1.78631887,24.2652222 2.03377962,24.963117 2.38373346,25.6119006 C2.58679594,26.0123158 2.42289935,26.4995497 2.01762081,26.7001754 C1.90343183,26.7567368 1.77754694,26.7861595 1.64989227,26.7861595 Z" id="Path" fill="url(#linearGradient-11)" fill-rule="nonzero"></path>
                        <path d="M25.4521391,9.75691813 C25.1648199,9.75707018 24.8983533,9.60882456 24.7495383,9.36608187 C23.9419052,8.04912865 19.4506771,4.89142105 13.1406587,4.89142105 C6.5745614,4.89142105 3.06494306,8.20482456 2.35087719,9.36608187 C2.12973223,9.75699415 1.62965528,9.89680117 1.23399508,9.67823392 C0.838334872,9.45974269 0.696829794,8.96566667 0.918051708,8.57475439 C0.927746999,8.5575731 0.938134811,8.54077193 0.94906125,8.52435088 C1.84695291,7.06310526 5.78831948,3.26961404 13.1407356,3.26961404 C20.054863,3.26961404 25.0270853,6.69165497 26.153124,8.52594737 C26.3879655,8.90902924 26.2639274,9.40766667 25.8761927,9.63961404 C25.7482302,9.71616959 25.6016467,9.75676608 25.4521391,9.75691813 Z" id="Path" fill="url(#linearGradient-12)" fill-rule="nonzero"></path>
                        <path d="M22.169052,3.26961404 C22.078024,3.26976608 21.9876116,3.25501754 21.9015082,3.22582456 C21.5731764,3.11391813 21.2547707,2.9971462 20.9412127,2.88364327 C18.4603724,1.9252924 15.8004001,1.50381871 13.1406587,1.64780702 C9.20098492,1.64780702 8.31294244,2.09702924 7.08671899,2.71821637 C6.78470299,2.87231579 6.46460449,3.03287719 6.09033549,3.20476608 C5.67513081,3.38615789 5.18967375,3.20066082 5.00607879,2.79036257 C4.82248384,2.38014035 5.01023392,1.90050877 5.42551554,1.71911696 C5.77185288,1.56501754 6.06571253,1.41585965 6.3447984,1.27476023 C7.71383503,0.577397661 8.8021699,0.0259239766 13.1407356,0.0259239766 C15.9955371,-0.117912281 18.8487996,0.33754386 21.5125423,1.36233918 C21.8145583,1.47264912 22.1166513,1.58455556 22.4350569,1.68673099 C22.8666513,1.8235731 23.1042629,2.28024561 22.9657587,2.70666082 C22.8549554,3.04739766 22.5312404,3.27622807 22.169052,3.26961404 Z" id="Path" fill="url(#linearGradient-13)" fill-rule="nonzero"></path>
                        <path d="M28.7351493,14.6224152 C28.3781933,14.6221871 28.0623269,14.3940409 27.953755,14.0580175 C27.5273161,12.9924737 27.0054632,11.966614 26.3942752,10.9927544 C26.1567405,10.611193 26.2772392,10.1116433 26.6635118,9.87695906 C27.0497076,9.64227485 27.5553247,9.76132749 27.7928593,10.1429649 L27.7928593,10.1429649 C28.4741459,11.2280468 29.0511696,12.3737193 29.5164666,13.5650058 C29.6542782,13.9916491 29.4158972,14.4479415 28.984072,14.5840234 C28.9036627,14.6094152 28.8196368,14.6224152 28.7351493,14.6224152 Z" id="Path" fill="url(#linearGradient-14)" fill-rule="nonzero"></path>
                    </g>
                </g>
            </g>
        </g>
    </g>
</svg>