<?xml version="1.0" encoding="UTF-8"?>
<svg width="54px" height="54px" viewBox="0 0 54 54" version="1.1" xmlns="http://www.w3.org/2000/svg" xmlns:xlink="http://www.w3.org/1999/xlink">
    <title>flexible</title>
    <defs>
        <linearGradient x1="50%" y1="0%" x2="50%" y2="100%" id="linearGradient-1">
            <stop stop-color="#FFE33C" offset="0%"></stop>
            <stop stop-color="#FFC21C" offset="100%"></stop>
        </linearGradient>
        <linearGradient x1="50%" y1="0%" x2="50%" y2="100%" id="linearGradient-2">
            <stop stop-color="#736BD8" offset="0%"></stop>
            <stop stop-color="#3F39AF" offset="100%"></stop>
        </linearGradient>
        <linearGradient x1="50%" y1="0%" x2="50%" y2="100%" id="linearGradient-3">
            <stop stop-color="#FF2790" offset="0%"></stop>
            <stop stop-color="#FF1157" offset="100%"></stop>
        </linearGradient>
        <linearGradient x1="50%" y1="0%" x2="50%" y2="100%" id="linearGradient-4">
            <stop stop-color="#DBEFFF" offset="0%"></stop>
            <stop stop-color="#B4DBFF" offset="100%"></stop>
        </linearGradient>
        <linearGradient x1="50%" y1="0%" x2="50%" y2="100%" id="linearGradient-5">
            <stop stop-color="#BFE7FF" offset="0%"></stop>
            <stop stop-color="#8BCAFF" offset="100%"></stop>
        </linearGradient>
        <linearGradient x1="64.0613448%" y1="48.8414294%" x2="50%" y2="51.4532362%" id="linearGradient-6">
            <stop stop-color="#494397" offset="0%"></stop>
            <stop stop-color="#23205E" offset="100%"></stop>
        </linearGradient>
    </defs>
    <g id="Page-1" stroke="none" stroke-width="1" fill="none" fill-rule="evenodd">
        <g id="Spoonshot---Home" transform="translate(-737.000000, -2951.000000)" fill-rule="nonzero">
            <g id="flexible" transform="translate(737.000000, 2951.000000)">
                <polygon id="Path" fill="url(#linearGradient-1)" points="28.1043064 6.08600611 49.9696177 6.08600611 49.9696177 16.6308771 28.1043064 16.6308771"></polygon>
                <path d="M53.1289743,10.7075604 L49.9696177,6.08600611 L49.9696177,16.6308771 L53.1289743,12.0093228 C53.3624679,11.6677256 53.3624679,11.0491576 53.1289743,10.7075604 Z" id="Path" fill="#D9EDFF"></path>
                <polygon id="Path" fill="url(#linearGradient-2)" points="28.1043064 27.1756312 49.9696177 27.1756312 49.9696177 37.7205022 28.1043064 37.7205022"></polygon>
                <path d="M53.1289743,31.7973024 L49.9696177,27.1757481 L49.9696177,37.720619 L53.1289743,33.0990647 C53.3624679,32.7573506 53.3624679,32.1388996 53.1289743,31.7973024 Z" id="Path" fill="#D9EDFF"></path>
                <polygon id="Path" fill="url(#linearGradient-3)" transform="translate(14.242934, 21.903196) rotate(-180.000000) translate(-14.242934, -21.903196) " points="3.38212603 16.6307602 25.1037429 16.6307602 25.1037429 27.1756312 3.38212603 27.1756312"></polygon>
                <path d="M0.222655206,22.5540769 L3.38201181,27.1756312 L3.38201181,16.6307602 L0.222655206,21.2524314 C-0.010838447,21.5940286 -0.010838447,22.2124797 0.222655206,22.5540769 Z" id="Path" fill="#D9EDFF"></path>
                <polygon id="Path" fill="#DCA100" points="28.1043064 14.2831705 49.9696177 14.2831705 49.9696177 16.6307602 28.1043064 16.6307602"></polygon>
                <path d="M53.1289743,10.7075604 L52.7714734,10.1845883 L49.9696177,14.2831705 L49.9696177,16.6307602 L53.1289743,12.0092059 C53.3624679,11.6677256 53.3624679,11.0491576 53.1289743,10.7075604 L53.1289743,10.7075604 Z" id="Path" fill="#B4DBFF"></path>
                <polygon id="Path" fill="#2E2897" points="28.1043064 35.3729125 49.9696177 35.3729125 49.9696177 37.7205022 28.1043064 37.7205022"></polygon>
                <path d="M53.1289743,31.7971855 L52.7714734,31.2742134 L49.9696177,35.3729125 L49.9696177,37.7205022 L53.1289743,33.0989479 C53.3624679,32.7573506 53.3624679,32.1387827 53.1289743,31.7971855 Z" id="Path" fill="#B4DBFF"></path>
                <polygon id="Path" fill="#E70649" points="3.38201181 24.8280415 25.1036287 24.8280415 25.1036287 27.1756312 3.38201181 27.1756312"></polygon>
                <path d="M0.222655206,21.2524314 C-0.010838447,21.5940286 -0.010838447,22.2124797 0.222655206,22.5540769 L3.38201181,27.1756312 L3.38201181,24.8280415 L0.580156146,20.7294593 L0.222655206,21.2524314 Z" id="Path" fill="#B4DBFF"></path>
                <polygon id="Path" fill="url(#linearGradient-4)" points="24.5406161 1.77613149 28.8108992 1.77613149 28.8108992 49.6920645 24.5406161 49.6920645"></polygon>
                <path d="M24.5406161,1.77613149 L24.5406161,49.6920645 L26.9111172,49.6920645 L26.9111172,5.53381767 C26.9111172,4.77407649 27.5130804,4.15807961 28.2557681,4.15807961 L28.8110134,4.15807961 L28.8110134,1.77613149 L24.5406161,1.77613149 Z" id="Path" fill="url(#linearGradient-5)"></path>
                <path d="M37.2621183,49.2354718 L16.0895831,49.2354718 C14.8594487,49.2354718 13.8621983,49.8615191 13.8621983,50.6337649 L13.8621983,52.2061872 C13.8621983,52.978433 14.8594487,53.6044803 16.0895831,53.6044803 L37.2619322,53.6044803 C38.4920666,53.6044803 39.489317,52.978433 39.489317,52.2061872 L39.489317,50.6337649 C39.489317,49.8615191 38.4922528,49.2354718 37.2621183,49.2354718 Z" id="Path" fill="url(#linearGradient-6)"></path>
                <path d="M20.8558413,52.2060704 L20.8558413,50.633648 C20.8558413,49.8614023 21.8224292,49.235355 23.0147407,49.235355 L16.0210977,49.235355 C14.8287862,49.235355 13.8621983,49.8614023 13.8621983,50.633648 L13.8621983,52.2060704 C13.8621983,52.9783161 14.8287862,53.6043634 16.0210977,53.6043634 L23.0147407,53.6043634 C21.8224292,53.6044803 20.8558413,52.978433 20.8558413,52.2060704 Z" id="Path" fill="#272190"></path>
                <path d="M30.1900458,2.97071539 L30.1900458,1.39829306 C30.1900458,0.626047299 29.5780309,0 28.8232354,0 L24.5282799,0 C23.7734843,0 23.1615837,0.626047299 23.1615837,1.39829306 L23.1615837,2.97071539 C23.1615837,3.74296115 23.7734843,4.36900845 24.5282799,4.36900845 L28.8231212,4.36900845 C29.5780309,4.36900845 30.1900458,3.74296115 30.1900458,2.97071539 Z" id="Path" fill="#D9EDFF"></path>
                <path d="M26.6758148,2.97071539 L26.6758148,1.39829306 C26.6758148,0.626047299 27.2877154,0 28.0425109,0 L24.5283941,0 C23.7735986,0 23.1616979,0.626047299 23.1616979,1.39829306 L23.1616979,2.97071539 C23.1616979,3.74307802 23.7735986,4.36900845 24.5283941,4.36900845 L28.0426252,4.36900845 C27.2877154,4.36900845 26.6758148,3.74296115 26.6758148,2.97071539 Z" id="Path" fill="#B4DBFF"></path>
            </g>
        </g>
    </g>
</svg>