<?xml version="1.0" encoding="UTF-8"?>
<svg width="67px" height="55px" viewBox="0 0 67 55" version="1.1" xmlns="http://www.w3.org/2000/svg" xmlns:xlink="http://www.w3.org/1999/xlink">
    <title>Insights</title>
    <defs>
        <linearGradient x1="50%" y1="0%" x2="50%" y2="100%" id="linearGradient-1">
            <stop stop-color="#F7F7FC" offset="0%"></stop>
            <stop stop-color="#EDECF7" offset="100%"></stop>
        </linearGradient>
        <linearGradient x1="50%" y1="0%" x2="50%" y2="100%" id="linearGradient-2">
            <stop stop-color="#FED356" offset="0%"></stop>
            <stop stop-color="#FCA72B" offset="100%"></stop>
        </linearGradient>
        <linearGradient x1="50%" y1="0%" x2="50%" y2="100%" id="linearGradient-3">
            <stop stop-color="#FF2790" offset="0%"></stop>
            <stop stop-color="#FF1157" offset="100%"></stop>
        </linearGradient>
        <linearGradient x1="50%" y1="0%" x2="50%" y2="100%" id="linearGradient-4">
            <stop stop-color="#E91579" offset="0%"></stop>
            <stop stop-color="#CF0943" offset="100%"></stop>
        </linearGradient>
        <linearGradient x1="50%" y1="0%" x2="50%" y2="100%" id="linearGradient-5">
            <stop stop-color="#FFEE62" offset="0%"></stop>
            <stop stop-color="#FFD833" offset="100%"></stop>
        </linearGradient>
        <linearGradient x1="50%" y1="0%" x2="50%" y2="100%" id="linearGradient-6">
            <stop stop-color="#837AEC" offset="0%"></stop>
            <stop stop-color="#3F39AF" offset="100%"></stop>
        </linearGradient>
    </defs>
    <g id="Page-1" stroke="none" stroke-width="1" fill="none" fill-rule="evenodd">
        <g id="Spoonshot---Home" transform="translate(-257.000000, -2399.000000)">
            <g id="Insights" transform="translate(257.000000, 2399.000000)">
                <ellipse id="Oval" fill="url(#linearGradient-1)" cx="48.3464978" cy="18.5967592" rx="17.9262295" ry="18.2547961"></ellipse>
                <g id="tools-and-utensils" transform="translate(0.000000, 4.214193)" fill-rule="nonzero">
                    <path d="M22.360841,21.7661745 L20.7697156,15.7200922 L20.4776074,14.6104004 L20.4776074,14.6099371 L20.2396438,13.7045769 C20.1081495,13.2046365 19.6035575,12.9076375 19.1121605,13.0420052 L13.0729817,14.689631 L7.03425787,16.3372568 C6.54331578,16.4711611 6.25166255,16.9854651 6.38361182,17.4854054 L6.62112034,18.3893756 C6.62112034,18.3898389 6.62157531,18.3903024 6.62157531,18.391229 L7.44375541,21.5159726 L8.50435409,25.5470031 C8.56759874,25.7870116 8.72184273,25.9918064 8.93341643,26.1159807 C9.07446565,26.198918 9.23325967,26.241545 9.39341871,26.241545 C9.47349823,26.241545 9.55357775,26.2313517 9.63183728,26.2095748 L10.518172,25.9677129 C10.519082,25.9677129 10.519992,25.9672496 10.520902,25.9667863 L20.8206753,23.1566483 C20.8211303,23.1566483 20.8215852,23.1566483 20.8220403,23.156185 L21.7097399,22.9138599 C21.9454286,22.8494561 22.1465373,22.6928482 22.2684767,22.4773966 C22.3908709,22.261945 22.4236307,22.006183 22.360841,21.7661745 Z" id="Path" fill="#FFD833"></path>
                    <path d="M8.50435409,25.5470031 C8.56759874,25.7870116 8.72184273,25.9918064 8.93341643,26.1159807 C9.07446565,26.198918 9.23325967,26.241545 9.39387379,26.241545 C9.47349823,26.241545 9.55357775,26.2313517 9.63183728,26.2095748 L10.518172,25.9677129 C10.519082,25.9677129 10.519992,25.9672496 10.521357,25.9667863 L20.8206753,23.1566483 C20.8211303,23.1566483 20.8215852,23.1566483 20.8220403,23.156185 L21.7097399,22.9138599 C21.9454286,22.8494561 22.1465373,22.6928482 22.2684767,22.4773966 C22.3908709,22.261945 22.4236307,22.006183 22.3603861,21.7661745 L21.2997874,17.735144 L7.44421038,21.5159726 L8.50435409,25.5470031 Z" id="Path" fill="#FFCE00"></path>
                    <path d="M4.30973419,29.0359295 C3.49710911,29.0359295 2.75136855,28.4827053 2.53114987,27.6463823 L0.179268868,18.7086147 C-0.0832645304,17.7101239 0.500497002,16.6801261 1.48101616,16.4123174 L5.79166028,15.2363685 C6.7726344,14.9680964 7.78363841,15.5634844 8.04662677,16.5624385 L10.3980527,25.4997428 C10.524997,25.9820764 10.4594774,26.4875769 10.2133239,26.9217235 C9.96671527,27.3563334 9.57041262,27.6667691 9.09585055,27.7960401 L4.78611636,28.971989 C4.62686726,29.0155427 4.46716318,29.0359295 4.30973419,29.0359295 Z" id="Path" fill="url(#linearGradient-2)"></path>
                    <path d="M2.53114987,27.6463823 C2.75136855,28.4827053 3.49710911,29.0359295 4.30973419,29.0359295 C4.46716318,29.0359295 4.62686726,29.0155427 4.78611636,28.971989 L9.09630552,27.7960401 C9.57041262,27.6667691 9.96717024,27.3558701 10.2133239,26.9217235 C10.4594774,26.4875769 10.5254519,25.9820764 10.3980527,25.4997428 L9.22233973,21.030859 L1.35498183,23.1774986 L2.53114987,27.6463823 Z" id="Path" fill="#FE9D00"></path>
                    <path d="M48.9031071,15.9638074 L46.074844,5.21531942 C46.0115994,4.97531088 45.8573553,4.77005275 45.6457816,4.64587848 C45.4342079,4.52170421 45.1830494,4.48788065 44.9473607,4.55228438 L39.23578,6.11094949 L19.6476924,11.4555399 C18.6671732,11.7233487 18.0829567,12.7533464 18.3459451,13.7518373 L20.697826,22.6891415 C20.8247702,23.1719385 21.1296185,23.5759682 21.5559509,23.8266334 C21.8403242,23.993898 22.1556374,24.079152 22.4745904,24.079152 C22.6342944,24.079152 22.7944534,24.0578385 22.9527926,24.0147482 L47.3629413,17.3542812 L48.252006,17.1114927 C48.4876946,17.0475522 48.6888033,16.8904811 48.8111977,16.6750293 C48.9331368,16.4595777 48.9663517,16.2038158 48.9031071,15.9638074 Z" id="Path" fill="url(#linearGradient-3)"></path>
                    <path d="M47.4889756,10.5895634 L19.521658,18.220721 L20.697826,22.6891415 C20.8247702,23.1719385 21.1296185,23.5759682 21.5559509,23.8266334 C21.8403242,23.993898 22.1556374,24.079152 22.4745904,24.079152 C22.6342944,24.079152 22.7944534,24.0578385 22.9527926,24.0147482 L47.3629413,17.3542812 L48.252006,17.1114927 C48.4876946,17.0475522 48.6888033,16.8904811 48.8111977,16.6750293 C48.9331368,16.4595777 48.9663517,16.2038158 48.9031071,15.9638074 L47.4889756,10.5895634 Z" id="Path" fill="url(#linearGradient-4)"></path>
                    <path d="M49.1351557,18.7252949 C48.8157476,18.7252949 48.5004345,18.6395775 48.2160611,18.472313 C47.7892738,18.2216478 47.4844255,17.817618 47.3579363,17.334821 L44.0633011,4.81453309 C43.8003126,3.81604218 44.3845291,2.78604436 45.3650483,2.51823573 L54.1414907,0.123710965 C54.6155979,-0.00556004203 55.1115449,0.0611604623 55.5383324,0.311825661 C55.9646648,0.562490978 56.269513,0.966520698 56.3964572,1.44931762 L59.6910925,13.9696057 C59.9536259,14.9685597 59.3698644,15.9985576 58.3888903,16.2659029 L49.6124479,18.6608911 C49.4545638,18.7039814 49.2944047,18.7252949 49.1351557,18.7252949 L49.1351557,18.7252949 Z" id="Path" fill="url(#linearGradient-5)"></path>
                    <path d="M59.6910925,13.9696057 L58.0435473,7.70946164 L45.7103912,11.0746771 L47.3574814,17.334821 C47.4844255,17.817618 47.7892738,18.2216478 48.2160611,18.472313 C48.5004345,18.6395775 48.8157476,18.7252949 49.1347007,18.7252949 C49.2944047,18.7252949 49.4545638,18.7039814 49.6124479,18.6604277 L58.3888903,16.2659029 C59.3698644,15.9980943 59.9536259,14.9680964 59.6910925,13.9696057 Z" id="Path" fill="#FFCE00"></path>
                    <path d="M45.5534172,46.8813478 L38.076902,23.4763508 C38.7866977,22.5570905 39.2116651,21.399675 39.2116651,20.1421789 C39.2116651,17.1619964 36.8306644,14.7373548 33.904122,14.7373548 C30.9775795,14.7373548 28.5965787,17.1619964 28.5965787,20.1421789 C28.5965787,21.399675 29.0215462,22.5570905 29.7313419,23.4763508 L22.2548267,46.8813478 C21.9404236,47.8659385 22.4691304,48.9237365 23.4359996,49.2443655 C23.6252785,49.306916 23.8172873,49.3365696 24.0061112,49.3365696 C24.7818815,49.3365696 25.5035072,48.8333858 25.7564857,48.0410798 L32.0632029,28.2996873 L32.0632029,47.3794348 C32.0632029,48.4149926 32.887203,49.254559 33.904122,49.254559 C34.9210409,49.254559 35.7454958,48.4149926 35.7454958,47.3794348 L35.7454958,28.2996873 L42.0517582,48.0410798 C42.3047365,48.8333858 43.0263623,49.3365696 43.8021326,49.3365696 C43.9909565,49.3365696 44.1829653,49.3064527 44.3722442,49.2439022 C45.3391135,48.9237365 45.8678202,47.8659385 45.5534172,46.8813478 L45.5534172,46.8813478 Z" id="Path" fill="url(#linearGradient-6)"></path>
                    <path d="M33.904122,18.4871397 C33.0077773,18.4871397 32.2788717,19.2294054 32.2788717,20.1421789 C32.2788717,21.0549524 33.0077773,21.7972181 33.904122,21.7972181 C34.8004665,21.7972181 35.5293722,21.0549524 35.5293722,20.1421789 C35.5293722,19.2294054 34.8000116,18.4871397 33.904122,18.4871397 Z" id="Path" fill="#FF1157"></path>
                </g>
            </g>
        </g>
    </g>
</svg>