<svg xmlns="http://www.w3.org/2000/svg" width="181" height="42" viewBox="0 0 181 42">
    <defs>
        <linearGradient id="a" x1="50%" x2="50%" y1="100%" y2="0%">
            <stop offset="0%" stop-color="#FEBB24"/>
            <stop offset="100%" stop-color="#FFD42B"/>
        </linearGradient>
        <linearGradient id="b" x1="50%" x2="50%" y1="0%" y2="100%">
            <stop offset="0%" stop-color="#F84A83"/>
            <stop offset="100%" stop-color="#F62364"/>
        </linearGradient>
        <linearGradient id="c" x1="50%" x2="50%" y1="100%" y2="0%">
            <stop offset="0%" stop-color="#3D27AA"/>
            <stop offset="100%" stop-color="#7D46D4"/>
        </linearGradient>
    </defs>
    <g fill="none" fill-rule="evenodd">
        <path fill="url(#a)" fill-rule="nonzero" d="M21.168.002C9.624-.14.146 9.069.002 20.564c-.14 11.242 8.683 20.51 19.87 21.053a.7.7 0 0 0 .738-.692l.024-4.254c-8.725-.177-15.7-7.284-15.591-15.996.108-8.755 7.321-15.76 16.116-15.651 8.794.109 15.82 7.327 15.71 16.082 0 .007 1.467.135 4.401.458a.495.495 0 0 0 .548-.484C41.951 9.587 32.712.146 21.168.002z"/>
        <path fill="url(#b)" fill-rule="nonzero" d="M21.21 10.296c-5.872-.107-10.73 4.533-10.867 10.372-.133 5.848 4.498 10.705 10.365 10.87l-.006 5.2c-8.72-.176-15.691-7.318-15.583-16.017.109-8.741 7.315-15.735 16.099-15.627 8.783.109 15.807 7.279 15.697 16.068a15.605 15.605 0 0 1-1.521 6.526 1.041 1.041 0 0 1-1.447.456l-3.629-2.009c.876-1.537 1.323-3.323 1.352-5.094.095-5.838-4.59-10.639-10.46-10.745z"/>
        <path fill="url(#c)" fill-rule="nonzero" d="M26.192 23.814c.445-.87.622-1.853.509-2.824 0-.014-.006-.027-.006-.049-.395-3.28-3.622-7.049-6.38-6.742-2.771.306-4.973 4.703-4.61 7.998.27 2.398 1.95 3.976 3.853 4.624.642.222 1.071.827 1.068 1.504l-.01 3.142c-5.872-.17-10.513-5.034-10.378-10.89.136-5.855 5.004-10.496 10.888-10.389 5.883.107 10.572 4.923 10.492 10.772v.049a10.634 10.634 0 0 1-7.027 9.825.536.536 0 0 1-.706-.393l-.507-2.448a1.828 1.828 0 0 1 .761-1.878c.838-.579 1.583-1.36 2.053-2.3"/>
        <path fill="#32304C" fill-rule="nonzero" d="M63.607 16.877h-2.685v-.602c0-.611-.145-1.14-.434-1.585-.29-.445-.777-.668-1.46-.668-.37 0-.668.07-.896.21-.228.14-.412.314-.552.524-.14.227-.237.484-.29.772-.053.288-.079.59-.079.904 0 .367.013.672.04.917.026.244.092.463.197.655.105.192.259.358.46.497.202.14.479.28.83.42l2.053.811c.596.227 1.079.494 1.447.8.369.305.658.659.869 1.06.193.42.324.895.395 1.428.07.532.105 1.14.105 1.82 0 .786-.08 1.515-.237 2.187-.158.673-.412 1.244-.763 1.716a3.785 3.785 0 0 1-1.448 1.152c-.597.28-1.325.42-2.185.42a4.8 4.8 0 0 1-1.816-.341 4.321 4.321 0 0 1-1.447-.943 4.588 4.588 0 0 1-.96-1.401 4.238 4.238 0 0 1-.356-1.742v-.995h2.684v.838c0 .489.145.93.435 1.322.29.393.776.59 1.46.59.457 0 .812-.066 1.066-.197.255-.13.452-.318.593-.563a2.06 2.06 0 0 0 .25-.877c.026-.34.04-.72.04-1.14 0-.489-.018-.89-.053-1.205-.036-.314-.106-.567-.211-.76a1.476 1.476 0 0 0-.487-.47 6.252 6.252 0 0 0-.803-.394l-1.921-.785c-1.158-.472-1.935-1.096-2.33-1.873-.394-.777-.592-1.75-.592-2.92 0-.7.097-1.363.29-1.991.193-.63.482-1.17.868-1.624a3.978 3.978 0 0 1 1.409-1.088c.57-.27 1.25-.406 2.04-.406.666 0 1.276.123 1.829.367.552.245 1.03.568 1.434.97.807.838 1.21 1.798 1.21 2.88v1.31zm4.925 13.28v-18.65h4.027c.737 0 1.386.097 1.947.289.562.192 1.07.532 1.527 1.021a3.99 3.99 0 0 1 .947 1.716c.176.655.264 1.541.264 2.659 0 .838-.049 1.545-.145 2.121a4.423 4.423 0 0 1-.619 1.624 3.91 3.91 0 0 1-1.474 1.428c-.614.34-1.42.51-2.421.51h-1.369v7.282h-2.684zm2.684-16.135v6.339h1.29c.544 0 .965-.079 1.263-.236.299-.157.518-.375.658-.655.14-.261.224-.585.25-.969.027-.384.04-.812.04-1.283 0-.437-.009-.851-.027-1.244a2.681 2.681 0 0 0-.236-1.035 1.49 1.49 0 0 0-.632-.681c-.28-.157-.684-.236-1.21-.236h-1.396zm10.794 1.886c0-.75.132-1.414.395-1.99a4.208 4.208 0 0 1 1.053-1.441c.421-.367.9-.646 1.434-.838a4.761 4.761 0 0 1 1.62-.289c.543 0 1.083.097 1.618.289a4.777 4.777 0 0 1 1.46.838c.422.384.764.864 1.027 1.44.263.577.395 1.24.395 1.991v9.849c0 .786-.132 1.458-.395 2.017a4.162 4.162 0 0 1-1.026 1.388 4.518 4.518 0 0 1-1.461.864 4.761 4.761 0 0 1-1.619.289 4.761 4.761 0 0 1-1.619-.289 4.227 4.227 0 0 1-1.434-.864 4 4 0 0 1-1.053-1.388c-.263-.559-.395-1.231-.395-2.017v-9.849zm2.685 9.849c0 .646.18 1.122.54 1.427.36.306.785.459 1.276.459s.917-.153 1.277-.459c.36-.305.54-.781.54-1.427v-9.849c0-.646-.18-1.122-.54-1.427a1.909 1.909 0 0 0-1.277-.459c-.491 0-.917.153-1.276.459-.36.305-.54.781-.54 1.427v9.849zm11.452-9.849c0-.75.132-1.414.395-1.99a4.208 4.208 0 0 1 1.053-1.441c.42-.367.9-.646 1.434-.838a4.761 4.761 0 0 1 1.619-.289c.544 0 1.083.097 1.619.289a4.777 4.777 0 0 1 1.46.838c.421.384.764.864 1.027 1.44.263.577.395 1.24.395 1.991v9.849c0 .786-.132 1.458-.395 2.017a4.162 4.162 0 0 1-1.027 1.388 4.518 4.518 0 0 1-1.46.864 4.761 4.761 0 0 1-1.62.289 4.761 4.761 0 0 1-1.618-.289 4.227 4.227 0 0 1-1.434-.864 4 4 0 0 1-1.053-1.388c-.263-.559-.395-1.231-.395-2.017v-9.849zm2.685 9.849c0 .646.18 1.122.54 1.427.36.306.785.459 1.276.459s.917-.153 1.276-.459c.36-.305.54-.781.54-1.427v-9.849c0-.646-.18-1.122-.54-1.427a1.909 1.909 0 0 0-1.276-.459c-.491 0-.917.153-1.277.459-.36.305-.54.781-.54 1.427v9.849zm11.505 4.4v-18.65h2.579l4.053 11.238h.053V11.508h2.685v18.65h-2.527l-4.106-11.211h-.053v11.21h-2.684zm23.401-13.28h-2.685v-.602c0-.611-.144-1.14-.434-1.585-.29-.445-.776-.668-1.46-.668-.37 0-.667.07-.895.21-.229.14-.413.314-.553.524-.14.227-.237.484-.29.772-.052.288-.079.59-.079.904 0 .367.013.672.04.917.026.244.092.463.197.655.105.192.259.358.46.497.203.14.479.28.83.42l2.053.811c.596.227 1.079.494 1.447.8.369.305.658.659.869 1.06.193.42.325.895.395 1.428.07.532.105 1.14.105 1.82 0 .786-.079 1.515-.237 2.187-.158.673-.412 1.244-.763 1.716a3.785 3.785 0 0 1-1.448 1.152c-.596.28-1.324.42-2.184.42a4.8 4.8 0 0 1-1.816-.341 4.321 4.321 0 0 1-1.448-.943 4.588 4.588 0 0 1-.96-1.401 4.238 4.238 0 0 1-.356-1.742v-.995h2.685v.838c0 .489.144.93.434 1.322.29.393.776.59 1.46.59.457 0 .812-.066 1.067-.197.254-.13.452-.318.592-.563a2.06 2.06 0 0 0 .25-.877c.026-.34.04-.72.04-1.14 0-.489-.018-.89-.053-1.205-.035-.314-.105-.567-.21-.76a1.476 1.476 0 0 0-.488-.47 6.252 6.252 0 0 0-.802-.394l-1.922-.785c-1.158-.472-1.934-1.096-2.33-1.873-.394-.777-.591-1.75-.591-2.92 0-.7.096-1.363.29-1.991.192-.63.482-1.17.868-1.624a3.978 3.978 0 0 1 1.408-1.088c.57-.27 1.25-.406 2.04-.406.666 0 1.276.123 1.829.367.553.245 1.03.568 1.434.97.808.838 1.211 1.798 1.211 2.88v1.31zm4.925 13.28v-18.65h2.685v7.99h3.316v-7.99h2.684v18.65h-2.684v-8.303h-3.316v8.303h-2.685zm13.979-14.249c0-.75.131-1.414.395-1.99a4.208 4.208 0 0 1 1.052-1.441c.421-.367.9-.646 1.435-.838a4.761 4.761 0 0 1 1.618-.289c.544 0 1.084.097 1.62.289a4.777 4.777 0 0 1 1.46.838c.421.384.763.864 1.026 1.44.264.577.395 1.24.395 1.991v9.849c0 .786-.131 1.458-.395 2.017a4.162 4.162 0 0 1-1.026 1.388 4.518 4.518 0 0 1-1.46.864 4.761 4.761 0 0 1-1.62.289 4.761 4.761 0 0 1-1.618-.289 4.227 4.227 0 0 1-1.435-.864 4 4 0 0 1-1.052-1.388c-.264-.559-.395-1.231-.395-2.017v-9.849zm2.684 9.849c0 .646.18 1.122.54 1.427.36.306.785.459 1.276.459.492 0 .917-.153 1.277-.459.36-.305.54-.781.54-1.427v-9.849c0-.646-.18-1.122-.54-1.427a1.909 1.909 0 0 0-1.277-.459c-.49 0-.916.153-1.276.459-.36.305-.54.781-.54 1.427v9.849zm13.374 4.4V14.022h-3.106v-2.514h8.896v2.514h-3.105v16.135H168.7z"/>
        <ellipse cx="178.099" cy="13.388" stroke="#32304C" stroke-width=".5" rx="1.901" ry="1.892"/>
        <path fill="#32304C" fill-rule="nonzero" d="M177.953 12.224v.873h.182c.056 0 .1-.01.134-.03a.203.203 0 0 0 .079-.084.456.456 0 0 0 .034-.136 1.633 1.633 0 0 0 0-.374.441.441 0 0 0-.037-.14c-.04-.073-.115-.11-.226-.11h-.166zm-.439 2.328v-2.62h.59c.431 0 .647.257.647.77a.989.989 0 0 1-.07.393.551.551 0 0 1-.246.261l.395 1.196h-.388l-.342-1.118h-.219v1.118h-.367z"/>
    </g>
</svg>
