<?xml version="1.0" encoding="UTF-8"?>
<svg width="60px" height="54px" viewBox="0 0 60 54" version="1.1" xmlns="http://www.w3.org/2000/svg" xmlns:xlink="http://www.w3.org/1999/xlink">
    <title>science</title>
    <defs>
        <linearGradient x1="50%" y1="0%" x2="50%" y2="100%" id="linearGradient-1">
            <stop stop-color="#F7F7FC" offset="0%"></stop>
            <stop stop-color="#EDECF7" offset="100%"></stop>
        </linearGradient>
        <linearGradient x1="50%" y1="0%" x2="50%" y2="100%" id="linearGradient-2">
            <stop stop-color="#736BD8" offset="0%"></stop>
            <stop stop-color="#3F39AF" offset="100%"></stop>
        </linearGradient>
        <linearGradient x1="50%" y1="0%" x2="50%" y2="100%" id="linearGradient-3">
            <stop stop-color="#FFE33C" offset="0%"></stop>
            <stop stop-color="#FFC21C" offset="100%"></stop>
        </linearGradient>
        <linearGradient x1="50%" y1="0%" x2="50%" y2="100%" id="linearGradient-4">
            <stop stop-color="#F4F4F4" offset="0%"></stop>
            <stop stop-color="#E6E6E6" offset="100%"></stop>
        </linearGradient>
        <linearGradient x1="50%" y1="0%" x2="50%" y2="100%" id="linearGradient-5">
            <stop stop-color="#736BD8" offset="0%"></stop>
            <stop stop-color="#3F39AF" offset="100%"></stop>
        </linearGradient>
        <linearGradient x1="50%" y1="0%" x2="50%" y2="100%" id="linearGradient-6">
            <stop stop-color="#FF2790" offset="0%"></stop>
            <stop stop-color="#FF1157" offset="100%"></stop>
        </linearGradient>
    </defs>
    <g id="Page-1" stroke="none" stroke-width="1" fill="none" fill-rule="evenodd">
        <g id="Spoonshot---Home" transform="translate(-257.000000, -2951.000000)">
            <g id="science" transform="translate(257.000000, 2951.000000)">
                <ellipse id="Oval-Copy-6" fill="url(#linearGradient-1)" cx="41.9759475" cy="19.7821782" rx="17.5342566" ry="17.6435644"></ellipse>
                <g id="chemistry" fill-rule="nonzero">
                    <path d="M44.4421807,22.1262556 L44.4421807,11.2713449 L31.0885626,11.2713449 L31.0885626,22.1262556 C25.3410695,24.7165179 21.3339503,30.5478515 21.3339503,37.3267299 C21.3339503,46.5121373 28.690328,53.9581473 37.7651649,53.9581473 C46.8400018,53.9581473 54.196793,46.5121373 54.196793,37.3267299 C54.196793,30.5478515 50.1892604,24.7165179 44.4421807,22.1262556 L44.4421807,22.1262556 Z" id="Path" fill="url(#linearGradient-2)"></path>
                    <path d="M50.8715168,37.3271485 C50.8715168,44.6421596 44.9925342,50.5923549 37.7647514,50.5923549 C35.3871914,50.5923549 33.1560061,49.9486607 31.2320432,48.8232422 C27.3059679,46.5301339 24.6592265,42.2356306 24.6592265,37.3271485 C24.6592265,33.6575056 26.1610176,30.2234934 28.6857797,27.7629744 L46.8445502,27.7629744 C49.3697258,30.2234934 50.8715168,33.6575056 50.8715168,37.3271485 L50.8715168,37.3271485 Z" id="Path" fill="url(#linearGradient-3)"></path>
                    <path d="M34.0904907,22.1266741 L34.0904907,19.1224888 C34.0904907,17.4948381 35.3938072,16.1756417 37.0014513,16.1756417 L44.4421807,16.1756417 L44.4421807,12.9542411 L41.7941989,10.515067 L39.3004486,9.84207589 L31.0889761,12.9538226 L31.0889761,22.1266741 C25.3406559,24.7169364 21.3339503,30.547433 21.3339503,37.3271485 C21.3339503,46.4727958 28.6270643,53.8941128 37.649388,53.9568917 C32.7081979,53.8413783 28.7225802,46.4401506 28.7225802,37.3271485 C28.7225802,30.547433 30.928129,24.7169364 34.0904907,22.1266741 L34.0904907,22.1266741 Z" id="Path" fill="#23205E"></path>
                    <path d="M31.2320432,48.8232422 C27.3059679,46.5301339 24.6592265,42.2356306 24.6592265,37.3271485 C24.6592265,33.6575056 26.1610176,30.2234934 28.6857797,27.7629744 L30.3674382,27.7629744 C29.3308221,30.467913 28.7225802,33.7663226 28.7225802,37.3271485 C28.7225802,41.7865513 29.6769121,45.835798 31.2320432,48.8232422 L31.2320432,48.8232422 Z" id="Path" fill="#C9950A"></path>
                    <path d="M32.1289003,46.7260045 L21.457997,28.0182756 L21.457997,18.3390066 L11.3167726,18.3390066 L11.3167726,28.0182756 L0.645869322,46.7260045 C-1.18753959,49.9402902 1.10401493,53.9581473 4.77124632,53.9581473 L28.0039368,53.9581473 C31.6707547,53.9581473 33.9627227,49.9402902 32.1289003,46.7260045 Z" id="Path" fill="url(#linearGradient-4)"></path>
                    <path d="M21.457997,18.3390066 L18.3531101,16.5732422 L12.4025941,16.6360212 L11.3163592,18.3390066 L11.3163592,28.0178571 L0.645869322,46.726423 C-1.18878009,49.9407087 1.10360136,53.9581473 4.77000583,53.9581473 L11.1125093,53.9581473 C9.44739019,53.9581473 8.40663911,49.9407087 9.23899187,46.726423 L14.0850796,28.0178571 L14.0850796,23.0486886 C14.0850796,22.0274833 14.9029603,21.2000559 15.9118727,21.2000559 L21.457997,21.2000559 L21.457997,18.3390066 Z" id="Path" fill="#CCCCCC"></path>
                    <path d="M25.1347386,16.1513672 C25.1347386,17.3596541 24.167175,18.3390066 22.9734331,18.3390066 L9.80092307,18.3390066 C9.20467228,18.3390066 8.66382904,18.094587 8.27266877,17.6982422 C7.88150839,17.3023158 7.63961752,16.7548828 7.63961752,16.1513672 C7.63961752,14.9430804 8.60718112,13.9637277 9.80092307,13.9637277 L22.9734331,13.9637277 C23.5696837,13.9637277 24.1105271,14.2081473 24.5016874,14.6040737 C24.8928476,15.0004185 25.1347386,15.5478515 25.1347386,16.1513672 Z" id="Path" fill="#CCCCCC"></path>
                    <path d="M25.1347386,16.1513672 C25.1347386,17.3596541 24.167175,18.3390066 22.9734331,18.3390066 L15.0427195,18.3390066 C14.4452283,18.3390066 13.9056256,18.094587 13.5140517,17.6982422 C13.1228914,17.3023158 12.8814139,16.7548828 12.8814139,16.1513672 C12.8814139,14.9430804 13.8489775,13.9637277 15.0427195,13.9637277 L22.9734331,13.9637277 C23.5696837,13.9637277 24.1105271,14.2081473 24.5016874,14.6040737 C24.8928476,15.0004185 25.1347386,15.5478515 25.1347386,16.1513672 Z" id="Path" fill="#E6E6E6"></path>
                    <path d="M48.1648196,10.766183 C48.1648196,11.9744699 47.197256,12.9538226 46.0035141,12.9538226 L29.7091642,12.9538226 C29.111673,12.9538226 28.5716568,12.7094029 28.1804964,12.3134765 C27.7893362,11.9171316 27.5474453,11.3696987 27.5474453,10.766183 C27.5474453,9.55789618 28.5154224,8.5785435 29.7091642,8.5785435 L46.0035141,8.5785435 C46.5997648,8.5785435 47.1406081,8.82296314 47.5317684,9.21930804 C47.9233422,9.61523443 48.1648196,10.1626674 48.1648196,10.766183 L48.1648196,10.766183 Z" id="Path" fill="#23205E"></path>
                    <path d="M48.1648196,10.766183 C48.1648196,11.9744699 47.197256,12.9538226 46.0035141,12.9538226 L34.7599289,12.9538226 C34.1636782,12.9538226 33.622835,12.7094029 33.2312611,12.3134765 C32.8401009,11.9171316 32.5986235,11.3696987 32.5986235,10.766183 C32.5986235,9.55789618 33.5661869,8.5785435 34.7599289,8.5785435 L46.0035141,8.5785435 C46.5997648,8.5785435 47.1406081,8.82296314 47.5317684,9.21930804 C47.9233422,9.61523443 48.1648196,10.1626674 48.1648196,10.766183 Z" id="Path" fill="url(#linearGradient-5)"></path>
                    <path d="M29.2489513,49.8645369 C29.093893,50.1369977 28.7258881,50.5923549 28.0043503,50.5923549 L4.77124632,50.5923549 C4.04846805,50.5923549 3.68046304,50.1369977 3.52540485,49.8645369 C3.37034655,49.592913 3.16401566,49.0421316 3.52540485,48.4093191 L11.3672183,34.6615513 L21.4083783,34.6615513 L29.2489513,48.4093191 C29.6103405,49.0421316 29.4040096,49.592913 29.2489513,49.8645369 Z" id="Path" fill="url(#linearGradient-6)"></path>
                    <g id="Group" transform="translate(3.281446, 0.000000)">
                        <path d="M5.95754542,46.726423 C5.63088928,47.9886997 5.59284843,49.3740235 5.76816764,50.5923549 L1.48979987,50.5923549 C0.767021595,50.5923549 0.399016585,50.1369977 0.243958395,49.8645369 C0.0889001004,49.592913 -0.117430795,49.0421316 0.243958395,48.4093191 L8.08577187,34.6615513 L9.08227962,34.6615513 L5.95754542,46.726423 Z" id="Path" fill="#DD0C4A"></path>
                        <path d="M14.8934501,44.2533482 C14.1384196,44.2533482 13.779098,43.2710658 14.3542608,42.7726005 C14.9261156,42.2770648 15.8237997,42.7826451 15.7158791,43.5359934 C15.6575772,43.9436384 15.299496,44.2533482 14.8934501,44.2533482 Z" id="Path" fill="#DD0C4A"></path>
                        <path d="M11.2270456,9.75753343 C10.5013729,9.75753343 10.1284061,8.83928571 10.6394782,8.3203125 C10.9156886,8.04031811 11.3634968,7.99679132 11.6880856,8.21609936 C11.9725658,8.40778457 12.1143924,8.76855471 12.036243,9.10546875 C11.9494104,9.48172436 11.6095227,9.75753343 11.2270456,9.75753343 Z" id="Path" fill="#FF1157"></path>
                        <path d="M14.5353688,6.55998879 C13.7832329,6.55998879 13.4156414,5.57393979 13.9953526,5.07840407 C14.2711495,4.84235486 14.6734741,4.81222093 14.9798692,5.00767296 C15.2742732,5.19559157 15.4243696,5.56473214 15.3449798,5.90834261 C15.2581471,6.28376121 14.9182594,6.55998879 14.5353688,6.55998879 Z" id="Path" fill="#FF1157"></path>
                        <path d="M12.733385,1.67996657 C12.3703419,1.67996657 12.0436859,1.43303571 11.9374193,1.08272882 C11.8319796,0.733258929 11.9709118,0.341099357 12.2711046,0.138532393 C12.8880298,-0.278320286 13.7228635,0.310965429 13.5388611,1.04296875 C13.4458261,1.41210943 13.1104867,1.67996657 12.733385,1.67996657 Z" id="Path" fill="#FF1157"></path>
                    </g>
                    <path d="M45.0644812,32.9799107 C44.3255769,32.9799107 43.9571584,32.0248326 44.5021365,31.5184152 C45.0243728,31.0333426 45.896007,31.4204799 45.896007,32.1382533 C45.896007,32.5957031 45.5172513,32.9799107 45.0644812,32.9799107 Z" id="Path" fill="#FFFFFF"></path>
                    <path d="M45.6433654,38.5915179 C44.9193467,38.5915179 44.539764,37.6728515 45.0557979,37.1555524 C45.3138149,36.8969029 45.714899,36.8370536 46.0353528,37.0090681 C46.3425748,37.1743862 46.5154131,37.5263672 46.4657945,37.874163 C46.4070791,38.2822265 46.0489979,38.5915179 45.6433654,38.5915179 L45.6433654,38.5915179 Z" id="Path" fill="#FFFFFF"></path>
                    <path d="M34.8008643,44.9267578 C34.445264,44.9267578 34.1235698,44.6902902 34.0119278,44.3491908 C33.89367,43.9892578 34.0371506,43.5807756 34.3526425,43.3765346 C34.9786644,42.9709821 35.8006801,43.5807756 35.6017919,44.3085938 C35.5037951,44.6685268 35.1705232,44.9267578 34.8008643,44.9267578 L34.8008643,44.9267578 Z" id="Path" fill="#FFFFFF"></path>
                    <path d="M30.9769207,37.8586774 C30.2256117,37.8586774 29.8609146,36.8780691 30.4335964,36.3812779 C30.7085665,36.1422991 31.1113045,36.1125837 31.4185266,36.3055245 C31.7100361,36.4892578 31.861373,36.8504464 31.790253,37.1907087 C31.7100361,37.5749163 31.3656001,37.8586774 30.9769207,37.8586774 L30.9769207,37.8586774 Z" id="Path" fill="#FFFFFF"></path>
                    <path d="M41.1177314,35.8392857 C40.3746922,35.8392857 40.0066872,34.8787667 40.5599351,34.3752791 C40.8357321,34.124163 41.2483938,34.0890066 41.5626453,34.2878069 C41.8500199,34.4702846 41.9992893,34.8260324 41.9335447,35.1629464 C41.8574628,35.5513393 41.5084782,35.8392857 41.1177314,35.8392857 L41.1177314,35.8392857 Z" id="Path" fill="#FFFFFF"></path>
                    <path d="M12.3571103,45.9960938 C12.0234249,45.9960938 11.7170297,45.7876674 11.5888483,45.476702 C11.4482621,45.1343471 11.5532882,44.7229352 11.8419034,44.4940011 C12.4344327,44.0248326 13.3242604,44.5655691 13.1716831,45.319336 C13.0931202,45.7077288 12.7499246,45.9960938 12.3571103,45.9960938 Z" id="Path" fill="#DD0C4A"></path>
                    <path d="M14.5184158,40.5514788 C14.1706718,40.5514788 13.8531125,40.3250559 13.7356817,39.9935826 C13.610808,39.641183 13.738576,39.233538 14.0429037,39.0200893 C14.6346061,38.6053292 15.464478,39.1314174 15.33671,39.8542131 C15.2664169,40.2518136 14.9186729,40.5514788 14.5184158,40.5514788 Z" id="Path" fill="#DD0C4A"></path>
                </g>
            </g>
        </g>
    </g>
</svg>