<?xml version="1.0" encoding="UTF-8"?>
<svg width="36px" height="54px" viewBox="0 0 36 54" version="1.1" xmlns="http://www.w3.org/2000/svg" xmlns:xlink="http://www.w3.org/1999/xlink">
    <title>unlocked</title>
    <defs>
        <linearGradient x1="7.24531803%" y1="24.2346856%" x2="50%" y2="79.0249433%" id="linearGradient-1">
            <stop stop-color="#FF5BAB" offset="0%"></stop>
            <stop stop-color="#FF2163" offset="100%"></stop>
        </linearGradient>
        <linearGradient x1="-2.22044605e-14%" y1="50%" x2="100%" y2="50%" id="linearGradient-2">
            <stop stop-color="#FF1157" offset="0%"></stop>
            <stop stop-color="#FF2790" offset="100%"></stop>
        </linearGradient>
        <linearGradient x1="50%" y1="0%" x2="50%" y2="100%" id="linearGradient-3">
            <stop stop-color="#FFE33C" offset="0%"></stop>
            <stop stop-color="#FFC21C" offset="100%"></stop>
        </linearGradient>
        <linearGradient x1="50%" y1="0%" x2="50%" y2="100%" id="linearGradient-4">
            <stop stop-color="#736BD8" offset="0%"></stop>
            <stop stop-color="#3F39AF" offset="100%"></stop>
        </linearGradient>
    </defs>
    <g id="Page-1" stroke="none" stroke-width="1" fill="none" fill-rule="evenodd">
        <g id="Spoonshot---Home" transform="translate(-737.000000, -2399.000000)" fill-rule="nonzero">
            <g id="unlocked" transform="translate(737.000000, 2399.000000)">
                <path d="M30.5867971,54 L5.32624638,54 C2.3847971,54 0,51.6152029 0,48.6737536 L0,31.9639275 C0,29.0224783 2.3847971,26.6376812 5.32624638,26.6376812 L30.5867971,26.6376812 C33.5282464,26.6376812 35.9130435,29.0224783 35.9130435,31.9639275 L35.9130435,48.6737536 C35.9130435,51.6152029 33.5282464,54 30.5867971,54 Z" id="Path" fill="url(#linearGradient-1)"></path>
                <path d="M30.5867971,26.6376812 L17.9565217,26.6376812 L17.9565217,54 L30.5867971,54 C33.5282464,54 35.9130435,51.6152029 35.9130435,48.6737536 L35.9130435,31.9639275 C35.9130435,29.0224783 33.5282464,26.6376812 30.5867971,26.6376812 Z" id="Path" fill="url(#linearGradient-2)"></path>
                <path d="M17.9565217,43.7391304 L17.9565217,43.7391304 C16.5456522,43.7391304 15.3913043,42.5847826 15.3913043,41.173913 L15.3913043,36.0434783 C15.3913043,34.6326087 16.5456522,33.4782609 17.9565217,33.4782609 L17.9565217,33.4782609 C19.3673913,33.4782609 20.5217391,34.6326087 20.5217391,36.0434783 L20.5217391,41.173913 C20.5217391,42.5847826 19.3673913,43.7391304 17.9565217,43.7391304 Z" id="Path" fill="url(#linearGradient-3)"></path>
                <path d="M5.13043478,14.9637681 C6.07443478,14.9637681 6.84057971,14.1976232 6.84057971,13.2536232 C6.84057971,7.8316087 11.8273623,3.42028986 17.9565217,3.42028986 C24.0856812,3.42028986 29.0724638,7.8316087 29.0724638,13.2536232 L29.0724638,26.6376812 L30.5867971,26.6376812 C31.246058,26.6376812 31.8753913,26.7633768 32.4576957,26.9822754 C32.4807826,26.8711159 32.4927536,26.7556812 32.4927536,26.6376812 L32.4927536,13.2536232 C32.4927536,5.94531884 25.971971,0 17.9565217,0 C9.94107246,0 3.42028986,5.94531884 3.42028986,13.2536232 C3.42028986,14.1976232 4.18643478,14.9637681 5.13043478,14.9637681 Z" id="Path" fill="url(#linearGradient-4)"></path>
            </g>
        </g>
    </g>
</svg>